# xmcd CD database file
#
# Track frame offsets:
#	183
#	15240
#	28620
#	44503
#	57530
#	74033
#	89200
#	102765
#	118738
#	132753
#	143998
#	158573
#
# Disc length: 2312 seconds
#
# Revision: 0
# Processed by: cddbd v1.5.1PL0 Copyright (c) Steve Scherf et al.
# Submitted via: CDex 1.51
#
DISCID=aa09060c
DTITLE=OLIVIA NEWTON-JOHN - BILLBOARD HITS U.S.A
DYEAR=1900
DGENRE=Country
TTITLE0=TAKE ME HOME COUNTRY ROADS
TTITLE1=LET ME BE THERE
TTITLE2=DON'T STOP BELIEVIN'
TTITLE3=IF NOT FOR YOU
TTITLE4=SAM
TTITLE5=COMPASSIONATE MAN
TTITLE6=JOLENE
TTITLE7=HAVE YOU NEVER BEEN MELLOW
TTITLE8=IT'S SO EASY
TTITLE9=CHANGES
TTITLE10=IF YOU LOVE ME (LET ME KNOW)
TTITLE11=PLEASE MR. PLEASE
EXTD=
EXTT0=
EXTT1=
EXTT2=
EXTT3=
EXTT4=
EXTT5=
EXTT6=
EXTT7=
EXTT8=
EXTT9=
EXTT10=
EXTT11=
PLAYORDER=
